<svg width="24" height="24" viewBox="0 0 24 24" fill="none" xmlns="http://www.w3.org/2000/svg">
<path fill-rule="evenodd" clip-rule="evenodd" d="M15.144 18.4401L5.46971 18.3957C4.84658 18.3957 4.0598 17.685 4.0598 17.0568L3.92762 7.12647C3.92762 6.78383 3.65067 6.50464 3.31078 6.50464C3.14713 6.50464 2.98977 6.56809 2.87648 6.68865L0.182533 9.41079C0.069237 9.52497 0 9.68361 0 9.84861V16.5746C0 19.7916 2.58694 22.3995 5.77813 22.3995H12.4564C12.62 22.3995 12.7774 22.3361 12.8906 22.2155L15.5846 19.4997C15.6979 19.3855 15.7671 19.2269 15.7671 19.0619C15.7671 18.7129 15.4901 18.4337 15.1503 18.4337L15.144 18.4401Z" fill="#52F6BB"/>
<path fill-rule="evenodd" clip-rule="evenodd" d="M18.2214 2H11.5432C11.3795 2 11.2222 2.06345 11.1089 2.18401L8.41494 4.89978C8.30166 5.014 8.23242 5.17263 8.23242 5.3376C8.23242 5.68659 8.50938 5.96578 8.84928 5.96578L18.5236 6.0102C19.1467 6.0102 19.9334 6.72087 19.9334 7.34905L20.0656 17.2794C20.0656 17.622 20.3426 17.9012 20.6825 17.9012C20.8461 17.9012 21.0035 17.8378 21.1168 17.7172L23.817 14.9951C23.9303 14.8809 23.9995 14.7222 23.9995 14.5573V7.83129C23.9995 4.61425 21.4126 2.00635 18.2214 2.00635V2Z" fill="#52F6BB"/>
</svg>
