<svg width="355" height="84" viewBox="0 0 355 84" fill="none" xmlns="http://www.w3.org/2000/svg">
<path d="M296.17 61.483V26.2705H304.973V30.4689C306.734 27.2185 310.119 25.4579 315.13 25.4579C319.667 25.4579 323.189 27.2862 325.288 30.4689C327.861 27.1508 331.789 25.4579 336.935 25.4579C344.316 25.4579 349.53 30.4689 349.53 38.9335V61.483H340.321V40.4232C340.321 36.3602 338.493 33.4484 334.023 33.4484C329.96 33.4484 327.455 35.8862 327.455 40.6264V61.483H318.245V40.4232C318.245 36.3602 316.417 33.4484 311.948 33.4484C307.817 33.4484 305.379 35.8862 305.379 40.6264V61.483H296.17Z" fill="white"/>
<path d="M272.308 61.4831V26.2705H281.043V33.1099C282.195 27.828 286.325 25.9996 291.607 25.9996H292.691V35.1414H290.795C284.768 35.1414 281.517 38.1209 281.517 45.2311V61.4831H272.308Z" fill="white"/>
<path d="M250.981 62.2956C240.417 62.2956 234.39 55.3886 234.39 46.3823V41.3713C234.39 32.365 240.417 25.4579 250.981 25.4579C261.544 25.4579 267.571 32.365 267.571 41.3713V46.3823C267.571 55.3886 261.544 62.2956 250.981 62.2956ZM258.633 46.9917V40.7618C258.633 36.1571 256.195 32.7035 250.981 32.7035C245.767 32.7035 243.329 36.1571 243.329 40.7618V46.9917C243.329 51.5964 245.767 55.05 250.981 55.05C256.195 55.05 258.633 51.5964 258.633 46.9917Z" fill="white"/>
<path d="M217.159 61.4831V33.7193H212.69V26.2705H217.159V23.0201C217.159 15.3004 220.816 12.05 228.062 12.05H234.156V19.3634H230.161C227.52 19.3634 226.369 20.176 226.369 22.9524V26.2705H233.479V33.7193H226.369V61.4831H217.159Z" fill="white"/>
<path d="M204.184 61.4831C197.412 61.4831 194.23 57.691 194.23 51.4611V33.7193H189.219V26.2705H194.23V16.6548H203.507V26.2705H211.023V33.7193H203.507V50.7839C203.507 53.0862 204.387 54.0343 206.825 54.0343H210.549V61.4831H204.184Z" fill="white"/>
<path d="M167.748 62.2956C159.825 62.2956 154.408 58.1649 154.408 51.3256C154.408 43.6736 160.164 40.1524 168.628 40.1524C172.827 40.1524 175.942 41.7776 177.567 43.1319V38.324C177.567 35.0736 175.265 32.6358 171.473 32.6358C168.29 32.6358 166.326 34.0579 165.378 35.9539H156.846C158.877 29.1146 164.362 25.4579 171.947 25.4579C180.75 25.4579 186.776 30.8075 186.776 39.0012V61.483H177.906V58.2327C176.28 60.6027 171.811 62.2956 167.748 62.2956ZM170.118 56.2012C174.181 56.2012 177.567 53.9665 177.567 50.987C177.567 47.872 174.52 46.0437 170.389 46.0437C166.055 46.0437 163.347 47.8043 163.347 51.0547C163.347 54.3051 166.258 56.2012 170.118 56.2012Z" fill="white"/>
<path d="M140.175 61.4831V12.05H149.384V61.4831H140.175Z" fill="white"/>
<path d="M99.2625 61.4831V14.0815H118.968C129.87 14.0815 136.574 20.5146 136.574 29.9949C136.574 39.4752 129.599 46.1792 118.968 46.1792H108.743V61.4831H99.2625ZM108.743 38.3918H118.359C124.385 38.3918 127.094 34.6674 127.094 29.9949C127.094 25.3225 124.385 21.8689 118.359 21.8689H108.743V38.3918Z" fill="white"/>
<path fill-rule="evenodd" clip-rule="evenodd" d="M50.48 61.4673L18.2324 61.3193C16.1553 61.3193 13.5327 58.9503 13.5327 56.8563L13.0921 23.7553C13.0921 22.6131 12.1689 21.6825 11.0359 21.6825C10.4904 21.6825 9.9659 21.894 9.58826 22.2959L0.608444 31.3697C0.23079 31.7503 0 32.2791 0 32.8291V55.2489C0 65.9725 8.62314 74.6655 19.2604 74.6655H41.5212C42.0666 74.6655 42.5912 74.4539 42.9688 74.0521L51.9486 64.9995C52.3262 64.6187 52.557 64.0899 52.557 63.5401C52.557 62.3767 51.6338 61.4461 50.501 61.4461L50.48 61.4673Z" fill="#52F6BB"/>
<path fill-rule="evenodd" clip-rule="evenodd" d="M60.7379 6.66638H38.4773C37.9317 6.66638 37.4073 6.87789 37.0295 7.27976L28.0497 16.3323C27.6721 16.713 27.4413 17.2418 27.4413 17.7917C27.4413 18.955 28.3645 19.8857 29.4975 19.8857L61.7451 20.0337C63.8221 20.0337 66.4447 22.4026 66.4447 24.4965L66.8853 57.5976C66.8853 58.7398 67.8085 59.6704 68.9415 59.6704C69.4869 59.6704 70.0115 59.459 70.3891 59.057L79.3899 49.9834C79.7675 49.6026 79.9983 49.0738 79.9983 48.524V26.104C79.9983 15.3805 71.3753 6.68753 60.7379 6.68753V6.66638Z" fill="#52F6BB"/>
</svg>
