<svg width="355" height="84" viewBox="0 0 355 84" fill="none" xmlns="http://www.w3.org/2000/svg">
<path d="M296.17 61.483V26.2704H304.973V30.4688C306.734 27.2185 310.119 25.4578 315.13 25.4578C319.667 25.4578 323.189 27.2862 325.288 30.4688C327.861 27.1507 331.789 25.4578 336.935 25.4578C344.316 25.4578 349.53 30.4688 349.53 38.9334V61.483H340.321V40.4232C340.321 36.3602 338.493 33.4484 334.023 33.4484C329.96 33.4484 327.455 35.8862 327.455 40.6263V61.483H318.245V40.4232C318.245 36.3602 316.417 33.4484 311.948 33.4484C307.817 33.4484 305.379 35.8862 305.379 40.6263V61.483H296.17Z" fill="#1B1B20"/>
<path d="M272.308 61.483V26.2704H281.043V33.1098C282.195 27.8279 286.325 25.9996 291.607 25.9996H292.691V35.1413H290.795C284.768 35.1413 281.517 38.1208 281.517 45.2311V61.483H272.308Z" fill="#1B1B20"/>
<path d="M250.981 62.2956C240.417 62.2956 234.39 55.3885 234.39 46.3822V41.3712C234.39 32.3649 240.417 25.4578 250.981 25.4578C261.544 25.4578 267.571 32.3649 267.571 41.3712V46.3822C267.571 55.3885 261.544 62.2956 250.981 62.2956ZM258.633 46.9917V40.7617C258.633 36.157 256.195 32.7035 250.981 32.7035C245.767 32.7035 243.329 36.157 243.329 40.7617V46.9917C243.329 51.5964 245.767 55.0499 250.981 55.0499C256.195 55.0499 258.633 51.5964 258.633 46.9917Z" fill="#1B1B20"/>
<path d="M217.159 61.483V33.7193H212.69V26.2704H217.159V23.0201C217.159 15.3004 220.816 12.05 228.062 12.05H234.156V19.3634H230.161C227.52 19.3634 226.369 20.176 226.369 22.9523V26.2704H233.479V33.7193H226.369V61.483H217.159Z" fill="#1B1B20"/>
<path d="M204.184 61.483C197.412 61.483 194.23 57.6909 194.23 51.461V33.7193H189.219V26.2705H194.23V16.6547H203.507V26.2705H211.023V33.7193H203.507V50.7838C203.507 53.0862 204.387 54.0342 206.825 54.0342H210.549V61.483H204.184Z" fill="#1B1B20"/>
<path d="M167.748 62.2956C159.825 62.2956 154.408 58.1649 154.408 51.3255C154.408 43.6736 160.164 40.1523 168.628 40.1523C172.827 40.1523 175.942 41.7775 177.567 43.1318V38.324C177.567 35.0736 175.265 32.6358 171.473 32.6358C168.29 32.6358 166.326 34.0578 165.378 35.9539H156.846C158.877 29.1145 164.362 25.4578 171.947 25.4578C180.75 25.4578 186.776 30.8074 186.776 39.0011V61.483H177.906V58.2326C176.28 60.6027 171.811 62.2956 167.748 62.2956ZM170.118 56.2011C174.181 56.2011 177.567 53.9665 177.567 50.9869C177.567 47.872 174.52 46.0436 170.389 46.0436C166.055 46.0436 163.347 47.8043 163.347 51.0546C163.347 54.305 166.258 56.2011 170.118 56.2011Z" fill="#1B1B20"/>
<path d="M140.175 61.483V12.05H149.384V61.483H140.175Z" fill="#1B1B20"/>
<path d="M99.2625 61.483V14.0815H118.968C129.87 14.0815 136.574 20.5145 136.574 29.9949C136.574 39.4752 129.599 46.1791 118.968 46.1791H108.743V61.483H99.2625ZM108.743 38.3917H118.359C124.385 38.3917 127.094 34.6673 127.094 29.9949C127.094 25.3224 124.385 21.8689 118.359 21.8689H108.743V38.3917Z" fill="#1B1B20"/>
<path fill-rule="evenodd" clip-rule="evenodd" d="M50.48 61.4673L18.2324 61.3193C16.1553 61.3193 13.5327 58.9503 13.5327 56.8563L13.0921 23.7553C13.0921 22.6131 12.1689 21.6825 11.0359 21.6825C10.4904 21.6825 9.9659 21.894 9.58826 22.2959L0.608444 31.3697C0.23079 31.7503 0 32.2791 0 32.8291V55.2489C0 65.9725 8.62314 74.6655 19.2604 74.6655H41.5212C42.0666 74.6655 42.5912 74.4539 42.9688 74.0521L51.9486 64.9995C52.3262 64.6187 52.557 64.0899 52.557 63.5401C52.557 62.3767 51.6338 61.4461 50.501 61.4461L50.48 61.4673Z" fill="#52F6BB"/>
<path fill-rule="evenodd" clip-rule="evenodd" d="M60.7379 6.66644H38.4773C37.9317 6.66644 37.4073 6.87795 37.0295 7.27982L28.0497 16.3324C27.6721 16.7131 27.4413 17.2419 27.4413 17.7918C27.4413 18.9551 28.3645 19.8857 29.4975 19.8857L61.7451 20.0338C63.8221 20.0338 66.4447 22.4027 66.4447 24.4966L66.8853 57.5976C66.8853 58.7398 67.8085 59.6704 68.9415 59.6704C69.4869 59.6704 70.0115 59.459 70.3891 59.057L79.3899 49.9834C79.7675 49.6026 79.9983 49.0738 79.9983 48.524V26.1041C79.9983 15.3806 71.3753 6.68759 60.7379 6.68759V6.66644Z" fill="#52F6BB"/>
</svg>
